<?xml version="1.0" encoding="utf-8"?><svg viewBox="0 0 2000 2000" xmlns="http://www.w3.org/2000/svg" xmlns:xlink="http://www.w3.org/1999/xlink"><style>:root>svg{display:none}:root>svg:target{display:block}</style><svg fill="none" viewBox="0 0 32 12" id="arrow" xmlns="http://www.w3.org/2000/svg"><path stroke="#000" stroke-width="2" d="M0 6h18"/><path d="M24 6l-6.75 5.2V.8L24 6z" fill="#000"/></svg><svg fill="none" viewBox="0 0 32 12" id="arrow-hover" xmlns="http://www.w3.org/2000/svg"><path stroke="#000" stroke-width="2" d="M0 6h26"/><path d="M32 6l-6.75 5.2V.8L32 6z" fill="#000"/></svg><svg viewBox="0 0 40 40" id="eating" xmlns="http://www.w3.org/2000/svg"><path fill-rule="evenodd" clip-rule="evenodd" d="M30.77 11.21c-.97-3.04-2.15-5-3.06-5.92C27.09 4.68 26 5.13 26 6v28c0 1.29 2 1.29 2 0v-9h3.5a1 1 0 001-1c0-5.5-.76-9.72-1.73-12.79zM30.49 23H28V9.52c1.85 4.2 2.41 8.94 2.5 13.48zM8.5 6c0-1.29 2-1.29 2 0v5.5a2.98 2.98 0 002.5 2.91V6c0-1.29 2-1.29 2 0v8.41a2.98 2.98 0 002.5-2.91V6c0-1.29 2-1.29 2 0v5.5c0 2.6-1.99 4.6-4.5 4.94V34c0 1.29-2 1.29-2 0V16.44a5.03 5.03 0 01-4.5-4.94V6z" fill="#fff"/></svg><svg fill="none" viewBox="0 0 29 34" id="facebook-m" xmlns="http://www.w3.org/2000/svg"><path d="M20 .75h-3.5c-1.55 0-3.03.71-4.12 1.97a7.3 7.3 0 00-1.71 4.77v4.05h-3.5v5.39h3.5v10.79h4.66v-10.8h3.5L20 11.55h-4.67V7.49c0-.36.13-.7.35-.95.21-.25.51-.4.82-.4H20V.75z" stroke="#666" stroke-width="1.1" stroke-linecap="round" stroke-linejoin="round"/></svg><svg fill="none" viewBox="0 0 22 22" id="facebook-s" xmlns="http://www.w3.org/2000/svg"><path d="M16.5 1.83h-2.75c-1.22 0-2.38.48-3.24 1.32a4.45 4.45 0 00-1.34 3.18v2.7H6.42v3.59h2.75v7.19h3.66v-7.2h2.75l.92-3.59h-3.67v-2.7a.9.9 0 01.92-.89h2.75v-3.6z" stroke="#666" stroke-width="1.1" stroke-linecap="round" stroke-linejoin="round"/></svg><svg viewBox="0 0 60 60" id="htmlacademy" xmlns="http://www.w3.org/2000/svg"><path d="M30.2 5H30L10.3 7.1v36.2L30 55l19.7-11.7V7.1L30.2 5zm17 36.8L30 52 12.8 41.8V27l17.1 10.2V39l-11.7-7v1.8L30 40.9v1.9l-11.8-7v1.8l11.8 7 11.9-7.1v-7.6l5.3-3.2v15.1zm-.1-17l-4.7 2.8-2.2 1.3-10.3-6.1v1.8l8.8 5.3h-.1l-.2.1-1.3.7-7.3-4.3v1.8l5.8 3.4-1.4.9-4.3-2.6v1.8l2.9 1.7-2.9 1.7-17-10.1 17-10.2 17.2 10zm.1-1.8L29.9 12.8 12.8 23V9.4L30 7.6l17.2 1.8V23z"/></svg><svg fill="none" viewBox="0 0 29 34" id="instagram-m" xmlns="http://www.w3.org/2000/svg"><path d="M17.48 4.09c1.91 0 3.48.02 4.7.07 1.03.04 1.95.22 2.75.54a5.73 5.73 0 013.33 3.32c.31.8.5 1.73.54 2.76a144.26 144.26 0 010 9.4 8.63 8.63 0 01-.54 2.75 5.73 5.73 0 01-3.33 3.33c-.8.31-1.72.5-2.76.54a143.79 143.79 0 01-9.39 0 8.63 8.63 0 01-2.76-.54 5.73 5.73 0 01-3.32-3.33c-.32-.8-.5-1.72-.54-2.76-.05-1.21-.07-2.78-.07-4.7 0-1.9.02-3.47.07-4.69.04-1.03.22-1.95.54-2.76a5.73 5.73 0 013.32-3.32 8.3 8.3 0 012.76-.54c1.22-.05 2.78-.07 4.7-.07zm0 1.48c-2 0-3.62.02-4.88.07-.8.03-1.55.17-2.24.43a4.1 4.1 0 00-2.3 2.29 7.3 7.3 0 00-.42 2.24c-.05 1.26-.07 2.89-.07 4.88 0 1.99.02 3.61.07 4.87.03.81.17 1.56.43 2.25a4.1 4.1 0 002.29 2.29c.69.25 1.43.4 2.24.43 1.26.04 2.89.06 4.88.06 1.99 0 3.61-.02 4.87-.06a7.37 7.37 0 002.25-.43 4.1 4.1 0 002.29-2.3c.25-.68.4-1.43.43-2.24.04-1.26.06-2.88.06-4.87 0-2-.02-3.62-.06-4.88a7.21 7.21 0 00-.43-2.24 4.1 4.1 0 00-2.3-2.3 7.21 7.21 0 00-2.24-.42 129.1 129.1 0 00-4.87-.07zm0 14.47a4.4 4.4 0 003.22-1.34 4.4 4.4 0 001.34-3.22 4.4 4.4 0 00-1.34-3.23 4.4 4.4 0 00-3.22-1.33 4.4 4.4 0 00-3.23 1.33 4.4 4.4 0 00-1.33 3.23 4.4 4.4 0 001.33 3.22 4.4 4.4 0 003.23 1.34zm0-10.4c1.61 0 3 .57 4.13 1.7a5.63 5.63 0 011.7 4.14c0 1.61-.56 3-1.7 4.13a5.63 5.63 0 01-4.13 1.7c-1.62 0-3-.56-4.14-1.7a5.63 5.63 0 01-1.7-4.13c0-1.62.57-3 1.7-4.14a5.63 5.63 0 014.14-1.7zm7.45-.23a1.36 1.36 0 01-1.4 1.35c-.36 0-.68-.13-.94-.4a1.3 1.3 0 01-.4-.95 1.36 1.36 0 011.35-1.39c.38 0 .7.14.98.42.28.27.41.6.41.97z" fill="#666"/></svg><svg fill="none" viewBox="0 0 16 20" id="instagram-s" xmlns="http://www.w3.org/2000/svg"><path d="M7.98 3.06c1.34 0 2.43.02 3.27.05a6 6 0 011.92.37 3.99 3.99 0 012.31 2.32 6 6 0 01.38 1.92 91.88 91.88 0 010 6.53 6 6 0 01-.38 1.92 3.99 3.99 0 01-2.3 2.31 6 6 0 01-1.93.38 91.88 91.88 0 01-6.53 0 6 6 0 01-1.92-.38 3.99 3.99 0 01-2.32-2.3 6 6 0 01-.37-1.93 91.73 91.73 0 010-6.53A6 6 0 01.48 5.8 3.99 3.99 0 012.8 3.48a6 6 0 011.92-.37c.84-.03 1.93-.05 3.26-.05zm0 1.03c-1.38 0-2.51.02-3.39.05-.56.02-1.08.12-1.56.3-.75.31-1.28.84-1.6 1.6-.17.47-.27 1-.29 1.55a98.83 98.83 0 000 6.79c.02.56.12 1.08.3 1.56.31.75.84 1.28 1.6 1.6.47.17 1 .27 1.55.29a98.66 98.66 0 006.79 0 5.01 5.01 0 001.56-.3 2.85 2.85 0 001.6-1.6c.17-.47.27-1 .29-1.55a98.66 98.66 0 000-6.79 5.01 5.01 0 00-.3-1.56 2.85 2.85 0 00-1.6-1.6c-.47-.17-1-.27-1.55-.29-.88-.03-2.01-.05-3.4-.05zm0 10.07c.88 0 1.63-.31 2.25-.93.62-.62.93-1.37.93-2.25 0-.87-.31-1.62-.93-2.24a3.06 3.06 0 00-2.25-.93c-.87 0-1.62.31-2.24.93a3.06 3.06 0 00-.93 2.24c0 .88.31 1.63.93 2.25.62.62 1.37.93 2.24.93zm0-7.24c1.13 0 2.09.4 2.88 1.19a3.9 3.9 0 011.19 2.87 3.9 3.9 0 01-1.2 2.88 3.85 3.85 0 01-2.87 1.19c-1.12 0-2.08-.4-2.87-1.2a3.92 3.92 0 01-1.19-2.87c0-1.12.4-2.08 1.19-2.87a3.9 3.9 0 012.87-1.19zm5.2-.15a.95.95 0 01-.97.94.9.9 0 01-.67-.28.9.9 0 01-.27-.66.95.95 0 01.93-.97c.26 0 .49.1.68.29.2.19.3.42.3.68z" fill="#666"/></svg><svg fill="none" viewBox="0 0 20 20" id="letter-m" xmlns="http://www.w3.org/2000/svg"><path stroke="#222" stroke-width="1.3" d="M1.18 8v8m17-8v8M.53 15.35h18m-18-12h18m-.65 1.83l-8.35 6.5-8.35-6.5V3.65h16.7v1.53z"/></svg><svg fill="none" viewBox="0 0 22 21" id="letter-s" xmlns="http://www.w3.org/2000/svg"><path stroke="#222" stroke-width="1.3" d="M1.65 8.85v8m17-8v8M1 16.2h18M1 4.2h18m-.65 1.83L10 12.53l-8.35-6.5V4.5h16.7v1.53z"/></svg><svg fill="none" viewBox="0 0 26 26" id="mark" xmlns="http://www.w3.org/2000/svg"><path d="M10 19.5l-7.6-8.6L1 12.48l9 10.19L25 5.7 23.6 4 10 19.5z" fill="#68B738"/></svg><svg viewBox="0 0 40 40" id="nutrients" xmlns="http://www.w3.org/2000/svg"><path d="M31.93 6c-4.94.03-16.95.92-21.8 8.38-2.7 4.17-2.79 10.66-.57 15.09a25.93 25.93 0 00-1.04 3.32c-.26 1.26 1.57 1.7 1.83.42.02-.1 2.4-10.37 10.85-16.38.98-.7 0-2.4-1.04-1.66-4.79 3.4-7.74 8-9.47 11.65-1.24-4.57-.92-8.37.99-11.3 3.74-5.76 12.62-7.15 17.98-7.45-1.16 1.8-2.41 5.1-2.41 10.93 0 3.12-.83 5.52-2.47 7.14-2.62 2.6-6.88 2.83-10 2.58-1.21-.1-1.35 1.9-.14 2 3.48.28 8.3-.03 11.41-3.11 2.04-2.02 3.07-4.91 3.07-8.6 0-9.1 3.22-11.1 3.23-11.11.84-.45.58-1.9-.42-1.9z" fill="#fff"/></svg><svg fill="none" viewBox="0 0 20 20" id="phone-m" xmlns="http://www.w3.org/2000/svg"><path d="M17.9 9.4H9.4v1.2h8.5l-2.1 2.1.9.9 3.1-3.1a.75.75 0 000-.9l-3.1-3.1-.9.9 2.1 2zm-9.8 10v-6.2a.65.65 0 00-.6-.6H3.1a1.22 1.22 0 001.2 1.2h2.5v5H3.1a1.79 1.79 0 01-1.9-1.7v-14a1.77 1.77 0 011.7-1.8h3.9v5H4.4a1.22 1.22 0 00-1.2 1.2h4.4a.65.65 0 00.6-.6V.6a.86.86 0 00-.7-.6H3.1A3 3 0 000 2.9v13.9a2.89 2.89 0 002.9 3.1h4.6a.5.5 0 00.6-.5z" fill="#000"/></svg><svg fill="none" viewBox="0 0 22 21" id="phone-s" xmlns="http://www.w3.org/2000/svg"><path d="M19.9 9.75h-8.5v1.2h8.5l-2.1 2.11.9.9 3.1-3.1a.75.75 0 000-.9l-3.1-3.12-.9.9 2.1 2.01zm-9.8 10.04v-6.22a.65.65 0 00-.6-.6H5.1a1.23 1.23 0 001.2 1.2h2.5v5.02H5.1a1.78 1.78 0 01-1.9-1.71V3.43a1.78 1.78 0 011.7-1.8h3.9v5.01H6.4a1.22 1.22 0 00-1.2 1.2h4.4a.65.65 0 00.6-.6V.92a.86.86 0 00-.7-.6H5.1A3 3 0 002 3.23v13.95a2.9 2.9 0 002.9 3.1h4.6a.5.5 0 00.6-.5z" fill="#000"/></svg><svg fill="none" viewBox="0 0 60 60" id="plus-m" xmlns="http://www.w3.org/2000/svg"><path stroke="#D3D3D3" stroke-width="2" d="M31 0v60m29-29H0"/></svg><svg fill="none" viewBox="0 0 30 30" id="plus-s" xmlns="http://www.w3.org/2000/svg"><path stroke="#D3D3D3" stroke-width="2" d="M15 0v30m15-15H0"/></svg><svg viewBox="0 0 40 40" id="powder" xmlns="http://www.w3.org/2000/svg"><path fill-rule="evenodd" clip-rule="evenodd" d="M16.6 3.99c-1.75 0-3.18 1.52-3.18 3.4 0 1.89 1.43 3.41 3.19 3.41s3.18-1.52 3.18-3.4c0-1.89-1.42-3.41-3.18-3.41zm0 5.48c-1.06 0-1.93-.93-1.93-2.07 0-1.15.87-2.07 1.94-2.07 1.07 0 1.93.92 1.93 2.07 0 1.14-.86 2.07-1.93 2.07zm9.18 13c-1.71 0-3.1 1.48-3.1 3.3 0 1.83 1.4 3.3 3.1 3.3 1.7 0 3.08-1.47 3.08-3.3 0-1.82-1.38-3.3-3.08-3.3zm0 5.02c-.89 0-1.6-.77-1.6-1.71 0-.95.71-1.72 1.6-1.72.88 0 1.6.77 1.6 1.72 0 .94-.72 1.7-1.6 1.7zm-12.55-5.88c-1.3 0-2.34 1.12-2.34 2.5 0 1.39 1.04 2.5 2.34 2.5 1.3 0 2.34-1.11 2.34-2.5 0-1.38-1.05-2.5-2.34-2.5zm20.42 9.21V12.16c0-.58-.38-.65-.53-.66h-.5c-.5 0-.54.56-.54.74v18.6a2.68 2.68 0 01-.82 1.89c-.81.7-1.62.6-1.62.6s-20.18 0-20.66-.03a2.3 2.3 0 01-1.6-1c-.57-.8-.46-1.85-.46-1.85V12.3c0-.83-.67-.8-.67-.8h-.3c-.54 0-.6.58-.6.77v18.54c0 1.33.46 2.4 1.55 3.33 1.1.94 2.38.86 2.38.86h20.58c.86 0 1.98-.42 2.91-1.56.93-1.14.88-2.63.88-2.63zM23.5 13.76s3.04-.84 6.18 1.5l.25.2c.8.66 1.46 1.2.9 1.92l-.01.01c-.34.34-.64.63-1.7-.54a6.92 6.92 0 00-5.62-1.44c-1.13.24-1.96.55-3.56 2.15a8.27 8.27 0 01-6.5 2.5c-2.52-.24-3.84-1.27-5.24-2.55-.3-.42-.3-.87-.12-1.13.17-.26.83-.52 1.2-.13.37.4 2.1 1.97 3.82 2.07 1.72.1 3.44.21 5.74-1.96 2.19-2.07 3.34-2.31 4.48-2.56l.18-.04z" fill="#fff"/></svg><svg fill="none" viewBox="0 0 83 83" id="present-m" xmlns="http://www.w3.org/2000/svg"><path d="M67.66 35.83H16.39a3.27 3.27 0 01-3.26-3.26v-9.78c0-1.8 1.46-3.26 3.26-3.26h51.27c1.8 0 3.26 1.47 3.26 3.26v9.78c0 1.8-1.46 3.26-3.26 3.26zm-51.27-13.8a.77.77 0 00-.76.76v9.78c0 .42.34.76.76.76h51.27c.42 0 .76-.34.76-.76v-9.78a.77.77 0 00-.76-.76H16.39z" fill="#fff"/><path d="M60.5 69.3H23.55a6.29 6.29 0 01-6.28-6.27V34.58a1.25 1.25 0 012.5 0v28.45c0 2.08 1.7 3.78 3.78 3.78H60.5c2.08 0 3.78-1.7 3.78-3.78V34.58a1.25 1.25 0 012.5 0v28.45a6.29 6.29 0 01-6.28 6.28z" fill="#fff"/><path d="M42.02 69.3c-.69 0-1.25-.55-1.25-1.24V34.58a1.25 1.25 0 012.5 0v33.48c0 .69-.56 1.25-1.25 1.25zm-15.6-47.27a8.08 8.08 0 017.69-14.2c5.96 3.23 9.18 12.24 9.31 12.62l-2.36.83c-.03-.08-3.03-8.48-8.14-11.25a5.58 5.58 0 00-5.3 9.8l-1.2 2.2z" fill="#fff"/><path d="M57.62 22.03l-1.19-2.2a5.54 5.54 0 002.25-7.55 5.53 5.53 0 00-7.55-2.25c-5.1 2.77-8.12 11.17-8.15 11.25l-2.36-.83c.14-.38 3.36-9.39 9.32-12.62a8.02 8.02 0 016.14-.64c2.07.62 3.77 2 4.8 3.9a8.01 8.01 0 01.64 6.14 8.03 8.03 0 01-3.9 4.8zm7.92 30.54H18.5a1.25 1.25 0 010-2.5h47.03a1.25 1.25 0 010 2.5z" fill="#fff"/></svg><svg fill="none" viewBox="0 0 78 80" id="present-s" xmlns="http://www.w3.org/2000/svg"><path d="M64.02 34.71H14.03a3.17 3.17 0 01-3.18-3.16v-9.47a3.17 3.17 0 013.18-3.16h49.98a3.17 3.17 0 013.19 3.16v9.47a3.17 3.17 0 01-3.18 3.16zM14.03 21.35c-.4 0-.74.33-.74.73v9.47c0 .41.33.74.74.74h49.98c.41 0 .75-.33.75-.74v-9.47c0-.4-.34-.73-.75-.73H14.03z" fill="#fff"/><path d="M57.04 67.15H21a6.11 6.11 0 01-6.13-6.09V33.5c0-.67.55-1.2 1.22-1.2.68 0 1.22.53 1.22 1.2v27.56A3.68 3.68 0 0021 64.73h36.04a3.68 3.68 0 003.7-3.67V33.5a1.22 1.22 0 012.44 0v27.56a6.11 6.11 0 01-6.14 6.09z" fill="#fff"/><path d="M39.02 67.15c-.67 0-1.22-.54-1.22-1.21V33.5c0-.67.55-1.2 1.22-1.2.68 0 1.22.53 1.22 1.2v32.44c0 .67-.54 1.2-1.22 1.2zM23.81 21.34a7.8 7.8 0 01-3.17-10.6A7.9 7.9 0 0131.3 7.6c5.82 3.13 8.96 11.86 9.09 12.23l-2.3.8c-.03-.08-2.96-8.22-7.95-10.9a5.46 5.46 0 00-7.36 2.17 5.39 5.39 0 002.2 7.32l-1.17 2.13z" fill="#fff"/><path d="M54.23 21.34l-1.16-2.13a5.38 5.38 0 00-1.03-9.92 5.43 5.43 0 00-4.14.43c-4.98 2.68-7.91 10.82-7.94 10.9l-2.3-.8c.13-.37 3.27-9.1 9.08-12.23a7.86 7.86 0 0111.29 9.1c-.6 2-1.95 3.66-3.8 4.65zm7.72 29.59H16.09c-.67 0-1.22-.54-1.22-1.21 0-.67.55-1.21 1.22-1.21h45.86c.67 0 1.22.54 1.22 1.21 0 .67-.55 1.21-1.22 1.21z" fill="#fff"/></svg><svg fill="none" viewBox="0 0 268 211" id="slimming-m" xmlns="http://www.w3.org/2000/svg"><circle cx="134" cy="111" r="100" fill="#68B738"/><g clip-path="url(#ata)"><path d="M173.68 0h-.76A7 7 0 00170 3.18c-1.13 2.16-2 4.45-2.58 6.82a3.26 3.26 0 01-2.96 2.68A14.67 14.67 0 00154 20.24a54.62 54.62 0 00-3.7 8c-2.84 7.36-5.02 14.96-7.7 22.38-1.26 3.38-1.32 3.38-5.12 3.38-4.54 0-4.22-.7-4.28 4.3 0 1.58.48 2.38 2.16 2.3.52 0 1.3-.26 1.5.42.2.68-.48.98-.88 1.38a18 18 0 01-8.66 4.88c-3.8 1.02-7.68 1.82-11.38 3.06-9.5 3.18-18.28 7.62-25.12 15.14a56 56 0 00-9.48 15.68c-7.34 17.28-10.9 35.48-13.66 53.86a375.77 375.77 0 00-2.92 26C64.4 185.3 64 189.64 64 194h66.66a4.36 4.36 0 00-.46-2.56 10 10 0 00-7.66-6.14c-1.4-.32-1.56-.74-.7-1.84a20.69 20.69 0 003.18-6.2c3.26-9.62 4.52-19.66 6.1-29.6.9-7.6 3.23-14.94 6.88-21.66a43.21 43.21 0 0111.18-12.74c1.66-1.26 1.72-1.26 2 .88.2 1.42.24 2.88.34 4.32.6 9.45.48 18.93-.36 28.36-.75 7.31-.86 14.67-.3 22 .8 8.5 2.31 16.93 4.54 25.18H182a10.82 10.82 0 00-8.48-8.88 18 18 0 00-7.52.4c-1.2.28-1.7 0-1.8-1.3a112.73 112.73 0 012-31.64c2.67-12 4.71-24.14 6.12-36.36a35.5 35.5 0 014.56-14c2.38-4.24 4.46-8.64 6.8-12.9a11.75 11.75 0 00.84-10.38c-.54-1.42-1.06-2.86-1.72-4.22-2-3.9-4-7.76-5.84-11.7-.98-2-.76-2.24 1.42-2.3 3.26 0 3.26 0 3.32-3.28v-1.32c0-1.38-.52-2.14-2-2h-3.04c-1.38 0-1.78-.58-1.44-2a12.48 12.48 0 0110.26-8.86 44 44 0 0113.24.86 2 2 0 002.5-1.28c.8-2 1.68-4 2.58-6a2 2 0 00-.2-2.28c-6.4-8.12-13.34-15.7-22.8-20.56a2.98 2.98 0 01-1.76-2.24 39.16 39.16 0 00-2.54-8.32A7 7 0 00173.68 0z" fill="#000"/></g><defs><clipPath id="ata"><path fill="#fff" transform="translate(64)" d="M0 0h140v194H0z"/></clipPath></defs></svg><svg fill="none" viewBox="0 0 68 53" id="slimming-s" xmlns="http://www.w3.org/2000/svg"><circle cx="34" cy="28" r="25" fill="#68B738"/><path d="M44.2 0H44c-.32.19-.59.47-.74.82a8.03 8.03 0 00-.67 1.76.84.84 0 01-.76.69 3.77 3.77 0 00-2.69 1.95c-.37.66-.69 1.35-.95 2.06-.73 1.9-1.29 3.85-1.98 5.77-.32.87-.34.87-1.32.87-1.16 0-1.08-.18-1.1 1.1 0 .41.13.62.56.6.13 0 .33-.07.39.1.05.18-.13.26-.23.36a4.63 4.63 0 01-2.23 1.26c-.97.26-1.97.47-2.92.79-2.45.82-4.7 1.96-6.46 3.9a14.44 14.44 0 00-2.44 4.04c-1.89 4.46-2.8 9.15-3.51 13.88a97.06 97.06 0 00-.75 6.7c-.1 1.1-.2 2.23-.2 3.35h17.14c.03-.23-.01-.46-.12-.66a2.58 2.58 0 00-1.97-1.58c-.36-.08-.4-.2-.18-.48.36-.48.64-1.02.82-1.6.84-2.47 1.16-5.06 1.57-7.62.23-1.96.83-3.85 1.77-5.59a11.13 11.13 0 012.87-3.28c.43-.32.45-.32.52.23.05.36.06.74.09 1.11a48.2 48.2 0 01-.1 7.31c-.2 1.88-.22 3.78-.07 5.67.2 2.2.59 4.36 1.16 6.49h6.84a2.8 2.8 0 00-2.18-2.29c-.64-.1-1.3-.07-1.93.1-.31.08-.44 0-.46-.33-.22-2.73-.04-5.47.51-8.16a91.8 91.8 0 001.57-9.37c.14-1.27.54-2.5 1.18-3.6.6-1.1 1.14-2.23 1.74-3.33a3.03 3.03 0 00.22-2.67c-.14-.37-.27-.74-.44-1.1-.52-1-1.03-2-1.5-3-.26-.52-.2-.59.36-.6.84 0 .84 0 .86-.85v-.34c0-.35-.14-.55-.52-.51h-.78c-.36 0-.46-.15-.37-.52a3.22 3.22 0 012.64-2.28 11.3 11.3 0 013.4.22.51.51 0 00.65-.33 40 40 0 01.66-1.55.52.52 0 00-.05-.58c-1.65-2.1-3.43-4.05-5.87-5.3a.77.77 0 01-.45-.58 9.8 9.8 0 00-.65-2.14A1.8 1.8 0 0044.2 0z" fill="#000"/></svg><svg viewBox="0 0 2000 2000" id="sprite" xmlns="http://www.w3.org/2000/svg"/><svg fill="none" viewBox="0 0 268 211" id="tiger-m" xmlns="http://www.w3.org/2000/svg"><circle cx="136" cy="111" r="100" fill="#68B738"/><g clip-path="url(#awa)"><path d="M246.2 66.6a30.4 30.4 0 019-9.2c2-1.4 3.2-1.4 4.4 1.2 1.6 3.8 3 7.8 1.8 12a4.58 4.58 0 00.8 4.2c1.2 1.6 2.2 3.2 3.2 4.6a12.54 12.54 0 011.8 12.4 10.86 10.86 0 00-.4 6.2c.4 1.98.4 4.02 0 6a7.5 7.5 0 01-5.4 6.4 10.42 10.42 0 00-6.4 4 2.1 2.1 0 01-1.8 1c-2.4.4-8.4-5-8.4-7.4v-1.2c.2-7.2-.2-7.8-6.8-10.8a8.78 8.78 0 01-3.6-2.4c-1.2-1.6-2.8-1.4-4.6-.8-1.8.6-2.8 1.8-2.6 3.8.6 4.84.8 9.73.6 14.6.01.56.15 1.1.4 1.6 6.2 9 8.6 19.6 11.6 29.8 2.4 7.8 6.8 12 14.8 12.6 1.28.1 2.55.3 3.8.6a8.32 8.32 0 016.8 6.4c1.4 4.2.6 5.2-3.6 5.2h-13a6.48 6.48 0 01-4.6-1.6 23.41 23.41 0 00-6.8-4 14.53 14.53 0 01-6.8-5.2 57.21 57.21 0 00-8-9c-5.6-5.8-11.6-11.4-16.8-17.4a22.76 22.76 0 01-6.4-15.2c0-1.8-.4-2.6-2.4-1.8-.6.38-1.3.59-2 .6-5.6 0-8.4 3.4-10.4 8.4-1.8 4.2-4.2 8.2-6.4 12.4a20.79 20.79 0 00-2 8.4c0 4.8 1.2 6.4 5.6 8 2.8 1 5.4 2 6.8 4.8 1.6 3.2 1.2 4-2.2 4.2h-13.6a3.75 3.75 0 01-3.8-2.2l-3.6-6a12.1 12.1 0 01-1.4-10.8c.87-3.47.93-7.1.2-10.6a16.84 16.84 0 013.4-14c1.2-1.4 1.2-2-.8-2.4a100.1 100.1 0 01-23.74-8.26.2.2 0 01-.06-.14c-6.4-2.4-7.6-2-9.4 4.6-1.6 5.6-3.2 11.2-4.4 17-1.4 6.4.2 12.4 2.2 18.4.8 2.4 3.2 2.2 5 2.8 4 1.2 7.4 2.8 9 7 1.4 3.2 1.2 3.6-2.2 3.6-3.4 0-6.8-.2-10.4 0-3.04.06-6-.93-8.4-2.8-9.6-6.4-12.4-16.2-13.2-26.8-.4-6.6-4-11.8-8.2-16.8-.8-1-1.6-1.4-2.8-.6a88.65 88.65 0 01-13.4 6 53.42 53.42 0 00-24.4 17.6 21.26 21.26 0 00-4.4 10.2c-.6 3.6.4 5.2 4 6.2s5.4 3 5.8 6.8c.2 1.6-.4 2.4-2 2.4H49.4a3.31 3.31 0 01-2.6-1.6c-2.51-3.11-3.86-7-3.8-11-.1-6.91.5-13.81 1.8-20.6a12.6 12.6 0 016.8-9.6c11.8-5.6 18-16.2 23.6-27.2 1.2-2.2.2-2.6-1.8-2.4-5.6.78-10.9 2.98-15.4 6.4-5.9 4.3-11.44 9.05-16.6 14.2a33.34 33.34 0 01-20.6 9.8C6.2 120-.6 111.8 0 98.6c.13-4.5 1.83-8.81 4.8-12.2a8.5 8.5 0 019-3c3 .8 3.8 2.4 2.6 5.4-.6 1.2-1.4 2.2-2 3.4a15 15 0 00-2 4c-2.2 6 .8 10.2 7 10.8 6.6.6 12-2.2 17-6.2a89.88 89.88 0 0016-16.6A41.58 41.58 0 0181.2 68c4.6-.6 8.6-2.6 13-3.8a83.02 83.02 0 0125.4-3.6 26 26 0 0011.6-2.2c9.8-4 20-4 30.2-2 8 1.6 16 3.6 23.8 5.6 4.64.86 9.42.73 14-.4a135.58 135.58 0 0126.8-4 36.3 36.3 0 0117.2 3.4c4 1.8 4 1.8 3 5.6z" fill="#000"/></g><defs><clipPath id="awa"><path fill="#fff" transform="translate(0 55)" d="M0 0h268v112H0z"/></clipPath></defs></svg><svg fill="none" viewBox="0 0 69 53" id="tiger-s" xmlns="http://www.w3.org/2000/svg"><circle cx="35.5" cy="25" r="25" fill="#68B738"/><path d="M62.55 14.73a7.86 7.86 0 012.25-2.43c.5-.38.8-.38 1.1.31.4 1.01.75 2.07.45 3.18a1.28 1.28 0 00.2 1.12c.3.42.55.84.8 1.22a3.43 3.43 0 01.45 3.28c-.18.53-.22 1.1-.1 1.64.1.53.1 1.07 0 1.6-.04.39-.2.76-.43 1.06-.24.3-.56.52-.92.63-.64.13-1.21.5-1.6 1.06a.54.54 0 01-.2.2.5.5 0 01-.25.07c-.6.1-2.1-1.33-2.1-1.97v-.31c.05-1.91-.05-2.07-1.7-2.87a2.19 2.19 0 01-.9-.63c-.3-.43-.7-.37-1.15-.21-.45.16-.7.47-.65 1 .15 1.29.2 2.58.15 3.87 0 .15.04.3.1.43 1.55 2.38 2.15 5.2 2.9 7.9.6 2.06 1.7 3.17 3.7 3.33.32.03.64.08.95.16.41.07.8.27 1.1.57.3.3.5.7.6 1.13.35 1.11.15 1.38-.9 1.38h-3.25c-.42.02-.83-.13-1.15-.43a5.8 5.8 0 00-1.7-1.06 3.66 3.66 0 01-1.7-1.38 14.92 14.92 0 00-2-2.38c-1.4-1.54-2.9-3.02-4.2-4.61a6.22 6.22 0 01-1.6-4.03c0-.48-.1-.69-.6-.48a.93.93 0 01-.5.16c-1.4 0-2.1.9-2.6 2.23-.45 1.11-1.05 2.17-1.6 3.28a5.9 5.9 0 00-.5 2.23c0 1.27.3 1.7 1.4 2.12.7.27 1.35.53 1.7 1.27.4.85.3 1.06-.55 1.12h-3.4a.9.9 0 01-.56-.13.98.98 0 01-.39-.46l-.9-1.59a3.32 3.32 0 01-.35-2.86c.22-.92.23-1.88.05-2.8a4.72 4.72 0 01.85-3.72c.3-.37.3-.53-.2-.63a24.1 24.1 0 01-5.95-2.23c-1.6-.64-1.9-.53-2.35 1.22-.4 1.48-.8 2.97-1.1 4.5-.35 1.7.05 3.29.55 4.88.2.63.8.58 1.25.74 1 .32 1.85.74 2.25 1.86.35.84.3.95-.55.95-.85 0-1.7-.05-2.6 0a3.2 3.2 0 01-2.1-.74c-2.4-1.7-3.1-4.3-3.3-7.1-.1-1.75-1-3.13-2.05-4.46-.2-.26-.4-.37-.7-.16-1.07.63-2.2 1.16-3.35 1.6-2.41.9-4.53 2.52-6.1 4.66a5.81 5.81 0 00-1.1 2.7c-.15.96.1 1.38 1 1.65.9.26 1.35.79 1.45 1.8.05.42-.1.63-.5.63h-4.05a.8.8 0 01-.37-.12.85.85 0 01-.28-.3 4.71 4.71 0 01-.95-2.92c-.03-1.83.12-3.66.45-5.46a3.4 3.4 0 011.7-2.54c2.95-1.48 4.5-4.3 5.9-7.2.3-.59.05-.7-.45-.64a8 8 0 00-3.85 1.7 35.96 35.96 0 00-4.15 3.76 8.15 8.15 0 01-5.15 2.6C2.55 28.87.85 26.7 1 23.2a5.3 5.3 0 011.2-3.23c.26-.35.61-.62 1.01-.76s.83-.15 1.24-.03c.75.2.95.63.65 1.43-.15.31-.35.58-.5.9-.22.32-.38.68-.5 1.06-.55 1.59.2 2.7 1.75 2.86 1.65.16 3-.58 4.25-1.64a23.27 23.27 0 004-4.4 10.6 10.6 0 013.18-2.94 9.98 9.98 0 014.02-1.36c1.15-.15 2.15-.68 3.25-1 2.06-.67 4.2-.99 6.35-.96 1 .05 1.99-.15 2.9-.58 2.45-1.06 5-1.06 7.55-.53 2 .43 4 .96 5.95 1.49 1.16.22 2.35.19 3.5-.11 2.2-.6 4.44-.95 6.7-1.06a8.64 8.64 0 014.3.9c1 .48 1 .48.75 1.48z" fill="#000"/></svg><svg viewBox="0 0 40 40" id="timer" xmlns="http://www.w3.org/2000/svg"><path d="M20.57 12.94v8.18a.9.9 0 010 .05c-.05.96-1.56.99-1.56 0v-8.23c0-1 1.56-1 1.56 0zm-5.15 1.39a1.09 1.09 0 11-2.17 0 1.09 1.09 0 012.17 0zm9.78 1.08a1.09 1.09 0 100-2.17 1.09 1.09 0 000 2.17zm-9.78 11.94a1.09 1.09 0 11-2.17 0 1.09 1.09 0 012.17 0zm4.35 3.25a1.09 1.09 0 100-2.17 1.09 1.09 0 000 2.18zm-7.61-9.83a1.09 1.09 0 11-2.18 0 1.09 1.09 0 012.18 0zm16.31 1.09a1.09 1.09 0 100-2.17 1.09 1.09 0 000 2.17zm-2.17 5.49a1.09 1.09 0 11-2.18 0 1.09 1.09 0 012.17 0zM12.75 5h14c.97 0 .97 1.5 0 1.5H20.5v1.52c6.41.4 11.5 5.88 11.5 12.6 0 3.31-1.24 6.33-3.27 8.58-.39.43-.95.8-1.26 1.28-.25.4-.23.95.11 1.3l1.36 1.4c.61.63-.36 1.58-.98.95l-1.82-1.88a1.08 1.08 0 00-1.22-.2 12 12 0 01-10.41-.04c-.41-.2-.9-.14-1.23.19l-1.88 1.93c-.61.63-1.59-.32-.97-.95l1.43-1.47c.31-.32.36-.8.19-1.18-.26-.56-.92-.97-1.32-1.42a12.79 12.79 0 01-3.2-8.5c0-6.7 5.07-12.18 11.47-12.59V6.5h-6.25c-.97 0-.97-1.5 0-1.5zm-.85 23.36a10.78 10.78 0 0015.66.07 11.36 11.36 0 003.08-7.82c0-4.77-2.9-8.85-6.97-10.47a10.66 10.66 0 00-7.74-.02 11.21 11.21 0 00-7.04 10.5c0 3 1.15 5.72 3.01 7.74z" fill="#fff"/></svg><svg fill="none" viewBox="0 0 29 34" id="vkontakte-m" xmlns="http://www.w3.org/2000/svg"><path d="M.1 8.49c0-.86.54-1.32 1.65-1.38L6 7.13c.29 0 .48.13.57.38.44 1.26.93 2.34 1.47 3.26.54.9 1.25 1.96 2.13 3.15.07.15.2.23.37.23.13 0 .24-.06.31-.18l.09-.27.03-4.36c0-.3-.08-.5-.25-.6-.16-.1-.46-.17-.9-.23-.34-.05-.5-.23-.5-.55 0-.07 0-.12.02-.15.4-1.09 1.54-1.63 3.43-1.63l1.6-.03c.72 0 1.32.16 1.8.48.47.32.7.82.7 1.5v5.72a.7.7 0 00.38.12c.28 0 .53-.15.74-.45 2.1-2.58 3.23-4.3 3.4-5.18l.05-.13c.14-.25.36-.47.66-.65.3-.19.57-.31.8-.38a.63.63 0 01.26-.05h4.42l.29.03a1 1 0 01.88.47c.08.1.13.21.16.33a2.26 2.26 0 01.07.55v.18a5.9 5.9 0 01-1.01 2.2c-.55.78-1.24 1.62-2.07 2.53-.84.9-1.36 1.5-1.57 1.78-.17.2-.26.39-.26.56 0 .13.08.28.23.45l4.17 4.63c.22.27.34.56.34.88 0 .38-.17.7-.51.95-.35.25-.76.4-1.23.43l-.49.03h-4.45l-.11.02c-.42 0-.81-.16-1.18-.48l-2.68-2.96a1.5 1.5 0 00-.4-.33l-.3 1.16-.27 1.08-.09.42c-.19.6-.58.94-1.2 1.06l-.4.03h-2.8c-1.57 0-3.15-.64-4.72-1.92a19.62 19.62 0 01-4.23-4.94A46.12 46.12 0 01.23 9.22a1.8 1.8 0 01-.14-.73zM17.24 15c-.4 0-.76-.1-1.09-.29-.32-.19-.48-.45-.48-.79V8.14c0-.34-.1-.58-.29-.72-.19-.14-.52-.21-1-.21l-1.62.05a3.7 3.7 0 00-1.86.37c.84.36 1.26.93 1.26 1.71v4.43c-.04.42-.23.77-.57 1.04a1.8 1.8 0 01-1.15.42c-.57 0-1-.24-1.3-.73a25.68 25.68 0 01-3.32-5.63l-.26-.66-3.8-.02c-.24 0-.38.01-.4.04-.04.02-.05.1-.05.2 0 .16.02.32.06.49l.6 1.4c1.6 3.64 3.33 6.51 5.2 8.6 1.88 2.1 3.72 3.15 5.53 3.15h2.85c.12 0 .2-.03.26-.09s.1-.17.14-.34l.06-.25.54-2.21c.15-.3.29-.5.4-.6.21-.19.46-.28.74-.28.46 0 .93.24 1.4.73l2.43 2.71c.15.22.31.33.48.33h4.72c.57 0 .85-.13.85-.38a.44.44 0 00-.08-.25l-4.14-4.55a1.65 1.65 0 01-.49-1.13c0-.4.15-.8.46-1.16.25-.33.73-.9 1.44-1.67.71-.78 1.34-1.51 1.87-2.19.53-.68.88-1.3 1.06-1.85l.08-.32a.35.35 0 01-.03-.17c0-.07 0-.14-.03-.19h-4.48c-.28.1-.51.25-.68.46l-.17.47c-.48 1.16-1.73 2.95-3.74 5.36-.4.34-.87.5-1.4.5z" fill="#666"/></svg><svg fill="none" viewBox="0 0 23 20" id="vkontakte-s" xmlns="http://www.w3.org/2000/svg"><path d="M.07 6c0-.63.42-.96 1.27-1.01L4.6 5c.22 0 .37.09.44.27.33.91.7 1.7 1.13 2.37.41.66.95 1.43 1.63 2.3a.3.3 0 00.28.16c.1 0 .18-.04.24-.13l.07-.2.02-3.17c0-.21-.06-.36-.19-.43A1.9 1.9 0 007.53 6c-.26-.04-.4-.17-.4-.4 0-.05.02-.09.03-.11.3-.8 1.18-1.19 2.63-1.19L11 4.29c.56 0 1.02.12 1.38.35.37.23.55.6.55 1.1v4.15c.1.06.2.09.28.09.22 0 .41-.11.57-.33 1.6-1.88 2.48-3.13 2.6-3.77a1.29 1.29 0 01.55-.57c.24-.13.44-.22.62-.27a.5.5 0 01.2-.03h3.39l.21.01c.3 0 .52.12.68.35.06.07.1.15.12.24a1.57 1.57 0 01.06.4v.13c-.1.5-.36 1.03-.78 1.6a16 16 0 01-1.59 1.84 20.8 20.8 0 00-1.2 1.3c-.13.14-.2.28-.2.4 0 .1.06.2.18.33l3.2 3.36c.17.2.26.41.26.64 0 .28-.13.52-.4.7-.26.18-.57.28-.94.3l-.37.03h-3.33a.8.8 0 00-.08 0 .8.8 0 01-.1.02 1.4 1.4 0 01-.89-.35 182 182 0 01-2.06-2.16 1.1 1.1 0 00-.3-.24 25.63 25.63 0 00-.44 1.63l-.07.31c-.14.43-.45.68-.92.77l-.3.02H9.74a5.92 5.92 0 01-3.62-1.4 14.5 14.5 0 01-3.25-3.59A32.89 32.89 0 01.18 6.52 1.24 1.24 0 01.07 6zm13.15 4.73c-.3 0-.58-.07-.83-.21-.25-.14-.37-.33-.37-.58v-4.2c0-.25-.07-.42-.22-.52-.15-.1-.4-.16-.77-.16L9.8 5.1c-.63 0-1.1.09-1.43.27.65.26.97.67.97 1.24v3.22c-.03.3-.18.56-.44.76-.26.2-.55.3-.88.3-.43 0-.77-.17-1-.53a18.47 18.47 0 01-2.54-4.1l-.2-.47-2.9-.02c-.2 0-.3.01-.33.03-.02.02-.03.07-.03.16 0 .1.02.22.04.34l.46 1.03a23.46 23.46 0 004 6.25c1.44 1.53 2.85 2.29 4.23 2.29h2.2c.08 0 .15-.02.19-.07a.52.52 0 00.1-.24l.05-.18.42-1.61c.11-.22.22-.37.3-.44.16-.14.35-.2.57-.2.35 0 .71.17 1.08.53l1.86 1.97c.11.16.24.24.37.24h3.6c.45 0 .67-.1.67-.28a.31.31 0 00-.07-.18l-3.17-3.3a1.17 1.17 0 01-.38-.83c0-.3.12-.57.35-.84.2-.25.56-.65 1.11-1.22a28.2 28.2 0 001.43-1.59c.41-.5.68-.94.81-1.34l.07-.24a.24.24 0 01-.02-.12l-.02-.14h-3.44c-.22.07-.4.18-.53.33l-.13.35c-.36.84-1.32 2.14-2.86 3.9-.31.24-.67.36-1.08.36z" fill="#666"/></svg></svg>