<?xml version="1.0" encoding="utf-8"?><svg viewBox="0 0 2000 2000" xmlns="http://www.w3.org/2000/svg" xmlns:xlink="http://www.w3.org/1999/xlink"><style>:root>svg{display:none}:root>svg:target{display:block}</style><svg viewBox="0 0 40 40" id="alarm" xmlns="http://www.w3.org/2000/svg"><path d="M20.57 12.94v8.18a.9.9 0 010 .05c-.05.96-1.56.99-1.56 0v-8.23c0-1 1.56-1 1.56 0zm-5.15 1.39a1.09 1.09 0 11-2.17 0 1.09 1.09 0 012.17 0zm9.78 1.08a1.09 1.09 0 100-2.17 1.09 1.09 0 000 2.17zm-9.78 11.94a1.09 1.09 0 11-2.17 0 1.09 1.09 0 012.17 0zm4.35 3.25a1.09 1.09 0 100-2.17 1.09 1.09 0 000 2.18zm-7.61-9.83a1.09 1.09 0 11-2.18 0 1.09 1.09 0 012.18 0zm16.31 1.09a1.09 1.09 0 100-2.17 1.09 1.09 0 000 2.17zm-2.17 5.49a1.09 1.09 0 11-2.18 0 1.09 1.09 0 012.17 0zM12.75 5h14c.97 0 .97 1.5 0 1.5H20.5v1.52c6.41.4 11.5 5.88 11.5 12.6 0 3.31-1.24 6.33-3.27 8.58-.39.43-.95.8-1.26 1.28-.25.4-.23.95.11 1.3l1.36 1.4c.61.63-.36 1.58-.98.95l-1.82-1.88a1.08 1.08 0 00-1.22-.2 12 12 0 01-10.41-.04c-.41-.2-.9-.14-1.23.19l-1.88 1.93c-.61.63-1.59-.32-.97-.95l1.43-1.47c.31-.32.36-.8.19-1.18-.26-.56-.92-.97-1.32-1.42a12.79 12.79 0 01-3.2-8.5c0-6.7 5.07-12.18 11.47-12.59V6.5h-6.25c-.97 0-.97-1.5 0-1.5zm-.85 23.36a10.78 10.78 0 0015.66.07 11.36 11.36 0 003.08-7.82c0-4.77-2.9-8.85-6.97-10.47a10.66 10.66 0 00-7.74-.02 11.21 11.21 0 00-7.04 10.5c0 3 1.15 5.72 3.01 7.74z" fill="#fff"/></svg><svg viewBox="0 0 32 12" id="arrow" xmlns="http://www.w3.org/2000/svg"><path d="M0 5v2h25v4l7-5-7-5v4z"/></svg><svg fill="none" viewBox="0 0 24 19" id="burger" xmlns="http://www.w3.org/2000/svg"><path stroke="#000" stroke-width="1.5" d="M0 1.25h24m-24 8h24m-24 8h24"/></svg><svg fill="none" viewBox="0 0 24 20" id="cross" xmlns="http://www.w3.org/2000/svg"><path transform="matrix(.68659 .72705 -.68659 .72705 3 2)" stroke="#000" stroke-width="1.5" d="M0-.75h24.76"/><path transform="matrix(.68659 -.72705 .68659 .72705 4 20)" stroke="#000" stroke-width="1.5" d="M0-.75h24.76"/></svg><svg fill="none" viewBox="0 0 18 20" id="facebook" xmlns="http://www.w3.org/2000/svg"><path d="M14.5.83h-2.75c-1.22 0-2.38.48-3.24 1.32a4.45 4.45 0 00-1.34 3.18v2.7H4.42v3.59h2.75v7.19h3.66v-7.2h2.75l.92-3.59h-3.67v-2.7a.9.9 0 01.92-.89h2.75V.83z" stroke="#666" stroke-width="1.1" stroke-linecap="round" stroke-linejoin="round"/></svg><svg viewBox="0 0 60 60" id="htmlacademy" xmlns="http://www.w3.org/2000/svg"><path d="M30.2 5H30L10.3 7.1v36.2L30 55l19.7-11.7V7.1L30.2 5zm17 36.8L30 52 12.8 41.8V27l17.1 10.2V39l-11.7-7v1.8L30 40.9v1.9l-11.8-7v1.8l11.8 7 11.9-7.1v-7.6l5.3-3.2v15.1zm-.1-17l-4.7 2.8-2.2 1.3-10.3-6.1v1.8l8.8 5.3h-.1l-.2.1-1.3.7-7.3-4.3v1.8l5.8 3.4-1.4.9-4.3-2.6v1.8l2.9 1.7-2.9 1.7-17-10.1 17-10.2 17.2 10zm.1-1.8L29.9 12.8 12.8 23V9.4L30 7.6l17.2 1.8V23z"/></svg><svg fill="none" viewBox="0 0 18 18" id="instagram" xmlns="http://www.w3.org/2000/svg"><path d="M8.98 1.06c1.34 0 2.43.02 3.27.05a6 6 0 011.92.37 3.99 3.99 0 012.31 2.32 6 6 0 01.38 1.92 91.88 91.88 0 010 6.53 6 6 0 01-.38 1.92 3.99 3.99 0 01-2.3 2.31 6 6 0 01-1.93.38 91.88 91.88 0 01-6.53 0 6 6 0 01-1.92-.38 3.99 3.99 0 01-2.32-2.3 6 6 0 01-.37-1.93 91.7 91.7 0 010-6.53 6 6 0 01.37-1.92A3.99 3.99 0 013.8 1.48a6 6 0 011.92-.37c.84-.03 1.93-.05 3.26-.05zm0 1.03c-1.38 0-2.51.02-3.39.05-.56.02-1.08.12-1.56.3-.75.31-1.28.84-1.6 1.6-.17.47-.27 1-.29 1.55a98.83 98.83 0 000 6.79c.02.56.12 1.08.3 1.56.31.75.84 1.28 1.6 1.6.47.17 1 .27 1.55.29a98.66 98.66 0 006.79 0 5.01 5.01 0 001.56-.3 2.85 2.85 0 001.6-1.6c.17-.47.27-1 .29-1.55a98.66 98.66 0 000-6.79 5.01 5.01 0 00-.3-1.56 2.85 2.85 0 00-1.6-1.6c-.47-.17-1-.27-1.55-.29-.88-.03-2.01-.05-3.4-.05zm0 10.07c.88 0 1.63-.31 2.25-.93.62-.62.93-1.37.93-2.25 0-.87-.31-1.62-.93-2.24a3.06 3.06 0 00-2.25-.93c-.87 0-1.62.31-2.24.93a3.06 3.06 0 00-.93 2.24c0 .88.31 1.63.93 2.25.62.62 1.37.93 2.24.93zm0-7.24c1.13 0 2.09.4 2.88 1.19a3.9 3.9 0 011.19 2.87 3.9 3.9 0 01-1.2 2.88 3.85 3.85 0 01-2.87 1.19c-1.12 0-2.08-.4-2.87-1.2a3.92 3.92 0 01-1.19-2.87c0-1.12.4-2.08 1.19-2.87a3.9 3.9 0 012.87-1.19zm5.2-.15a.95.95 0 01-.97.94.9.9 0 01-.67-.28.9.9 0 01-.27-.66.95.95 0 01.93-.97c.26 0 .49.1.68.29.2.19.3.42.3.68z" fill="#666"/></svg><svg viewBox="0 0 40 40" id="leaf" xmlns="http://www.w3.org/2000/svg"><path d="M31.93 6c-4.94.03-16.95.92-21.8 8.38-2.7 4.17-2.79 10.66-.57 15.09a25.93 25.93 0 00-1.04 3.32c-.26 1.26 1.57 1.7 1.83.42.02-.1 2.4-10.37 10.85-16.38.98-.7 0-2.4-1.04-1.66-4.79 3.4-7.74 8-9.47 11.65-1.24-4.57-.92-8.37.99-11.3 3.74-5.76 12.62-7.15 17.98-7.45-1.16 1.8-2.41 5.1-2.41 10.93 0 3.12-.83 5.52-2.47 7.14-2.62 2.6-6.88 2.83-10 2.58-1.21-.1-1.35 1.9-.14 2 3.48.28 8.3-.03 11.41-3.11 2.04-2.02 3.07-4.91 3.07-8.6 0-9.1 3.22-11.1 3.23-11.11.84-.45.58-1.9-.42-1.9z" fill="#fff"/></svg><svg fill="none" viewBox="0 0 20 15" id="letter" xmlns="http://www.w3.org/2000/svg"><path stroke="#222" stroke-width="1.3" d="M1.65 5.85v8m17-8v8M1 13.2h18M1 1.2h18m-.65 1.83L10 9.53l-8.35-6.5V1.5h16.7v1.53z"/></svg><svg fill="none" viewBox="0 0 26 26" id="mark" xmlns="http://www.w3.org/2000/svg"><path d="M10 19.5l-7.6-8.6L1 12.48l9 10.19L25 5.7 23.6 4 10 19.5z" fill="#68B738"/></svg><svg fill="none" viewBox="0 0 21 21" id="phone" xmlns="http://www.w3.org/2000/svg"><path d="M18.9 9.75h-8.5v1.2h8.5l-2.1 2.11.9.9 3.1-3.1a.75.75 0 000-.9l-3.1-3.12-.9.9 2.1 2.01zM9.1 19.79v-6.22a.65.65 0 00-.6-.6H4.1a1.23 1.23 0 001.2 1.2h2.5v5.02H4.1a1.78 1.78 0 01-1.9-1.71V3.43a1.78 1.78 0 011.7-1.8h3.9v5.01H5.4a1.22 1.22 0 00-1.2 1.2h4.4a.65.65 0 00.6-.6V.92a.86.86 0 00-.7-.6H4.1A3 3 0 001 3.23v13.95a2.9 2.9 0 002.9 3.1h4.6a.5.5 0 00.6-.5z" fill="#000"/></svg><svg fill="none" viewBox="0 0 30 30" id="plus" xmlns="http://www.w3.org/2000/svg"><path stroke="#D3D3D3" stroke-width="2" d="M15 0v30m15-15H0"/></svg><svg viewBox="0 0 40 40" id="powder" xmlns="http://www.w3.org/2000/svg"><path fill-rule="evenodd" clip-rule="evenodd" d="M16.6 3.99c-1.75 0-3.18 1.52-3.18 3.4 0 1.89 1.43 3.41 3.19 3.41s3.18-1.52 3.18-3.4c0-1.89-1.42-3.41-3.18-3.41zm0 5.48c-1.06 0-1.93-.93-1.93-2.07 0-1.15.87-2.07 1.94-2.07 1.07 0 1.93.92 1.93 2.07 0 1.14-.86 2.07-1.93 2.07zm9.18 13c-1.71 0-3.1 1.48-3.1 3.3 0 1.83 1.4 3.3 3.1 3.3 1.7 0 3.08-1.47 3.08-3.3 0-1.82-1.38-3.3-3.08-3.3zm0 5.02c-.89 0-1.6-.77-1.6-1.71 0-.95.71-1.72 1.6-1.72.88 0 1.6.77 1.6 1.72 0 .94-.72 1.7-1.6 1.7zm-12.55-5.88c-1.3 0-2.34 1.12-2.34 2.5 0 1.39 1.04 2.5 2.34 2.5 1.3 0 2.34-1.11 2.34-2.5 0-1.38-1.05-2.5-2.34-2.5zm20.42 9.21V12.16c0-.58-.38-.65-.53-.66h-.5c-.5 0-.54.56-.54.74v18.6a2.68 2.68 0 01-.82 1.89c-.81.7-1.62.6-1.62.6s-20.18 0-20.66-.03a2.3 2.3 0 01-1.6-1c-.57-.8-.46-1.85-.46-1.85V12.3c0-.83-.67-.8-.67-.8h-.3c-.54 0-.6.58-.6.77v18.54c0 1.33.46 2.4 1.55 3.33 1.1.94 2.38.86 2.38.86h20.58c.86 0 1.98-.42 2.91-1.56.93-1.14.88-2.63.88-2.63zM23.5 13.76s3.04-.84 6.18 1.5l.25.2c.8.66 1.46 1.2.9 1.92l-.01.01c-.34.34-.64.63-1.7-.54a6.92 6.92 0 00-5.62-1.44c-1.13.24-1.96.55-3.56 2.15a8.27 8.27 0 01-6.5 2.5c-2.52-.24-3.84-1.27-5.24-2.55-.3-.42-.3-.87-.12-1.13.17-.26.83-.52 1.2-.13.37.4 2.1 1.97 3.82 2.07 1.72.1 3.44.21 5.74-1.96 2.19-2.07 3.34-2.31 4.48-2.56l.18-.04z" fill="#fff"/></svg><svg fill="none" viewBox="0 0 78 80" id="present" xmlns="http://www.w3.org/2000/svg"><path d="M64.02 34.71H14.03a3.17 3.17 0 01-3.18-3.16v-9.47a3.17 3.17 0 013.18-3.16h49.98a3.17 3.17 0 013.19 3.16v9.47a3.17 3.17 0 01-3.18 3.16zM14.03 21.35c-.4 0-.74.33-.74.73v9.47c0 .41.33.74.74.74h49.98c.41 0 .75-.33.75-.74v-9.47c0-.4-.34-.73-.75-.73H14.03z" fill="#fff"/><path d="M57.04 67.15H21a6.11 6.11 0 01-6.13-6.09V33.5c0-.67.55-1.2 1.22-1.2.68 0 1.22.53 1.22 1.2v27.56A3.68 3.68 0 0021 64.73h36.04a3.68 3.68 0 003.7-3.67V33.5a1.22 1.22 0 012.44 0v27.56a6.11 6.11 0 01-6.14 6.09z" fill="#fff"/><path d="M39.02 67.15c-.67 0-1.22-.54-1.22-1.21V33.5c0-.67.55-1.2 1.22-1.2.68 0 1.22.53 1.22 1.2v32.44c0 .67-.54 1.2-1.22 1.2zM23.81 21.34a7.8 7.8 0 01-3.17-10.6A7.9 7.9 0 0131.3 7.6c5.82 3.13 8.96 11.86 9.09 12.23l-2.3.8c-.03-.08-2.96-8.22-7.95-10.9a5.46 5.46 0 00-7.36 2.17 5.39 5.39 0 002.2 7.32l-1.17 2.13z" fill="#fff"/><path d="M54.23 21.34l-1.16-2.13a5.38 5.38 0 00-1.03-9.92 5.43 5.43 0 00-4.14.43c-4.98 2.68-7.91 10.82-7.94 10.9l-2.3-.8c.13-.37 3.27-9.1 9.08-12.23a7.86 7.86 0 0111.29 9.1c-.6 2-1.95 3.66-3.8 4.65zm7.72 29.59H16.09c-.67 0-1.22-.54-1.22-1.21 0-.67.55-1.21 1.22-1.21h45.86c.67 0 1.22.54 1.22 1.21 0 .67-.55 1.21-1.22 1.21z" fill="#fff"/></svg><svg fill="none" viewBox="0 0 140 140" id="slimming" xmlns="http://www.w3.org/2000/svg"><circle cx="70" cy="70" r="50" fill="#68B738"/><path d="M89.84 14h-.38A3.5 3.5 0 0088 15.59c-.56 1.08-1 2.23-1.29 3.41a1.63 1.63 0 01-1.48 1.34A7.34 7.34 0 0080 24.12a27.31 27.31 0 00-1.85 4c-1.42 3.68-2.51 7.48-3.85 11.19C73.67 41 73.64 41 71.74 41c-2.27 0-2.11-.35-2.14 2.15 0 .79.24 1.19 1.08 1.15.26 0 .65-.13.75.21.1.34-.24.49-.44.69a9 9 0 01-4.33 2.44c-1.9.51-3.84.91-5.69 1.53-4.75 1.59-9.14 3.81-12.56 7.57a28 28 0 00-4.74 7.84c-3.67 8.64-5.45 17.74-6.83 26.93-.65 4.31-1.11 8.64-1.46 13-.18 2.14-.38 4.31-.38 6.49h33.33a2.1 2.1 0 00-.23-1.28 5 5 0 00-3.83-3.07c-.7-.16-.78-.37-.35-.92.7-.94 1.24-1.98 1.59-3.1 1.63-4.81 2.26-9.83 3.05-14.8A30 30 0 0172 77a21.6 21.6 0 015.59-6.37c.83-.63.86-.63 1 .44.1.71.12 1.44.17 2.16.3 4.72.24 9.46-.18 14.18a61.67 61.67 0 00-.15 11c.4 4.25 1.16 8.47 2.27 12.59H94a5.41 5.41 0 00-4.24-4.44 9 9 0 00-3.76.2c-.6.14-.85 0-.9-.65a56.35 56.35 0 011-15.82c1.33-6 2.36-12.07 3.06-18.18a17.75 17.75 0 012.28-7c1.19-2.12 2.23-4.32 3.4-6.45a5.87 5.87 0 00.42-5.19c-.27-.71-.53-1.43-.86-2.11-1-1.95-2-3.88-2.92-5.85-.49-1-.38-1.12.71-1.15 1.63 0 1.63 0 1.66-1.64v-.66c0-.69-.26-1.07-1-1h-1.52c-.69 0-.89-.29-.72-1a6.24 6.24 0 015.13-4.43 22 22 0 016.62.43 1 1 0 001.25-.64c.4-1 .84-2 1.29-3a1 1 0 00-.1-1.14c-3.2-4.06-6.67-7.85-11.4-10.28a1.5 1.5 0 01-.88-1.12 19.6 19.6 0 00-1.27-4.16A3.5 3.5 0 0089.84 14z" fill="#000"/></svg><svg viewBox="0 0 2000 2000" id="sprite" xmlns="http://www.w3.org/2000/svg"/><svg viewBox="0 0 40 40" id="tableware" xmlns="http://www.w3.org/2000/svg"><path fill-rule="evenodd" clip-rule="evenodd" d="M30.77 11.21c-.97-3.04-2.15-5-3.06-5.92C27.09 4.68 26 5.13 26 6v28c0 1.29 2 1.29 2 0v-9h3.5a1 1 0 001-1c0-5.5-.76-9.72-1.73-12.79zM30.49 23H28V9.52c1.85 4.2 2.41 8.94 2.5 13.48zM8.5 6c0-1.29 2-1.29 2 0v5.5a2.98 2.98 0 002.5 2.91V6c0-1.29 2-1.29 2 0v8.41a2.98 2.98 0 002.5-2.91V6c0-1.29 2-1.29 2 0v5.5c0 2.6-1.99 4.6-4.5 4.94V34c0 1.29-2 1.29-2 0V16.44a5.03 5.03 0 01-4.5-4.94V6z" fill="#fff"/></svg><svg fill="none" viewBox="0 0 140 140" id="tiger" xmlns="http://www.w3.org/2000/svg"><circle cx="70" cy="70" r="50" fill="#68B738"/><path d="M124.1 45.8a15.2 15.2 0 014.5-4.6c1-.7 1.6-.7 2.2.6.8 1.9 1.5 3.9.9 6a2.29 2.29 0 00.4 2.1c.6.8 1.1 1.6 1.6 2.3a6.28 6.28 0 01.9 6.2c-.37 1-.44 2.07-.2 3.1.2.99.2 2.01 0 3a3.75 3.75 0 01-2.7 3.2 5.21 5.21 0 00-3.2 2 1.05 1.05 0 01-.9.5c-1.2.2-4.2-2.5-4.2-3.7v-.6c.1-3.6-.1-3.9-3.4-5.4a4.38 4.38 0 01-1.8-1.2c-.6-.8-1.4-.7-2.3-.4-.9.3-1.4.9-1.3 1.9.3 2.42.4 4.86.3 7.3 0 .28.07.55.2.8 3.1 4.5 4.3 9.8 5.8 14.9 1.2 3.9 3.4 6 7.4 6.3.64.05 1.27.15 1.9.3a4.16 4.16 0 013.4 3.2c.7 2.1.3 2.6-1.8 2.6h-6.5a3.24 3.24 0 01-2.3-.8 11.71 11.71 0 00-3.4-2 7.26 7.26 0 01-3.4-2.6 28.59 28.59 0 00-4-4.5c-2.8-2.9-5.8-5.7-8.4-8.7a11.38 11.38 0 01-3.2-7.6c0-.9-.2-1.3-1.2-.9-.3.19-.65.3-1 .3-2.8 0-4.2 1.7-5.2 4.2-.9 2.1-2.1 4.1-3.2 6.2a10.4 10.4 0 00-1 4.2c0 2.4.6 3.2 2.8 4 1.4.5 2.7 1 3.4 2.4.8 1.6.6 2-1.1 2.1h-6.8a1.88 1.88 0 01-1.9-1.1l-1.8-3a6.05 6.05 0 01-.7-5.4c.43-1.74.47-3.55.1-5.3a8.42 8.42 0 011.7-7c.6-.7.6-1-.4-1.2a50.06 50.06 0 01-11.87-4.13.1.1 0 01-.03-.07c-3.2-1.2-3.8-1-4.7 2.3-.8 2.8-1.6 5.6-2.2 8.5-.7 3.2.1 6.2 1.1 9.2.4 1.2 1.6 1.1 2.5 1.4 2 .6 3.7 1.4 4.5 3.5.7 1.6.6 1.8-1.1 1.8-1.7 0-3.4-.1-5.2 0-1.52.03-3-.47-4.2-1.4-4.8-3.2-6.2-8.1-6.6-13.4-.2-3.3-2-5.9-4.1-8.4-.4-.5-.8-.7-1.4-.3a44.31 44.31 0 01-6.7 3 26.71 26.71 0 00-12.2 8.8 10.63 10.63 0 00-2.2 5.1c-.3 1.8.2 2.6 2 3.1s2.7 1.5 2.9 3.4c.1.8-.2 1.2-1 1.2h-8.1a1.65 1.65 0 01-1.3-.8 8.56 8.56 0 01-1.9-5.5c-.05-3.46.25-6.9.9-10.3a6.3 6.3 0 013.4-4.8c5.9-2.8 9-8.1 11.8-13.6.6-1.1.1-1.3-.9-1.2-2.8.39-5.45 1.5-7.7 3.2a70.61 70.61 0 00-8.3 7.1 16.67 16.67 0 01-10.3 4.9C4.1 72.5.7 68.4 1 61.8c.07-2.25.92-4.4 2.4-6.1a4.25 4.25 0 014.5-1.5c1.5.4 1.9 1.2 1.3 2.7-.3.6-.7 1.1-1 1.7a7.5 7.5 0 00-1 2c-1.1 3 .4 5.1 3.5 5.4 3.3.3 6-1.1 8.5-3.1 3.01-2.41 5.7-5.2 8-8.3a20.8 20.8 0 0114.4-8.1c2.3-.3 4.3-1.3 6.5-1.9a41.51 41.51 0 0112.7-1.8 13 13 0 005.8-1.1c4.9-2 10-2 15.1-1 4 .8 8 1.8 11.9 2.8 2.32.43 4.7.36 7-.2a67.8 67.8 0 0113.4-2c2.96-.14 5.92.44 8.6 1.7 2 .9 2 .9 1.5 2.8z" fill="#000"/></svg><svg fill="none" viewBox="0 0 25 16" id="vkontakte" xmlns="http://www.w3.org/2000/svg"><path d="M1.07 4c0-.63.42-.96 1.27-1.01L5.6 3c.22 0 .37.09.44.27.33.91.7 1.7 1.13 2.37.41.66.95 1.43 1.63 2.3a.3.3 0 00.28.16c.1 0 .18-.04.24-.13l.07-.2.02-3.17c0-.21-.06-.36-.19-.43A1.9 1.9 0 008.53 4c-.26-.04-.4-.17-.4-.4 0-.05.02-.09.03-.11.3-.8 1.18-1.19 2.63-1.19L12 2.29c.56 0 1.02.12 1.38.35.37.23.55.6.55 1.1v4.15c.1.06.2.09.28.09.22 0 .41-.11.57-.33 1.6-1.88 2.48-3.13 2.6-3.77a1.29 1.29 0 01.55-.57c.24-.13.44-.22.62-.27a.5.5 0 01.2-.03h3.39l.21.01c.3 0 .52.12.68.35.06.07.1.15.12.24a1.57 1.57 0 01.06.4v.13c-.1.5-.36 1.03-.78 1.6a16 16 0 01-1.59 1.84c-.64.66-1.04 1.09-1.2 1.3-.13.14-.2.28-.2.4 0 .1.06.2.18.33l3.2 3.36c.17.2.26.41.26.64 0 .28-.13.52-.4.7-.26.18-.57.28-.94.3l-.37.03h-3.33a.8.8 0 00-.08 0 .8.8 0 01-.1.02 1.4 1.4 0 01-.89-.35 182 182 0 01-2.06-2.16 1.1 1.1 0 00-.3-.24 25.63 25.63 0 00-.44 1.63l-.07.31c-.14.43-.45.68-.92.77l-.3.02h-2.15a5.92 5.92 0 01-3.62-1.4 14.5 14.5 0 01-3.25-3.59 32.9 32.9 0 01-2.69-5.13 1.29 1.29 0 01-.11-.53zm13.15 4.73c-.3 0-.58-.07-.83-.21-.25-.14-.37-.33-.37-.58v-4.2c0-.25-.07-.42-.22-.52-.15-.1-.4-.16-.77-.16l-1.24.04c-.63 0-1.1.09-1.43.27.65.26.97.67.97 1.24v3.22c-.03.3-.18.56-.44.76-.26.2-.55.3-.88.3-.43 0-.77-.17-1-.53a18.47 18.47 0 01-2.54-4.1l-.2-.47-2.9-.02c-.2 0-.3.01-.33.03-.02.02-.03.07-.03.16 0 .1.02.22.04.34l.46 1.03a23.46 23.46 0 004 6.25c1.44 1.53 2.85 2.29 4.23 2.29h2.2c.08 0 .15-.02.19-.07a.52.52 0 00.1-.24l.05-.18.42-1.61c.11-.22.22-.37.3-.44.16-.14.35-.2.57-.2.35 0 .71.17 1.08.53l1.86 1.97c.11.16.24.24.37.24h3.6c.45 0 .67-.1.67-.28a.31.31 0 00-.07-.18l-3.17-3.3a1.17 1.17 0 01-.38-.83c0-.3.12-.57.35-.84.2-.25.56-.65 1.11-1.22a28.2 28.2 0 001.43-1.59c.41-.5.68-.94.81-1.34l.07-.24a.24.24 0 01-.02-.12l-.02-.14h-3.44c-.22.07-.4.18-.53.33l-.13.35c-.36.84-1.32 2.14-2.86 3.9-.31.24-.67.36-1.08.36z" fill="#666"/></svg></svg>