<svg xmlns="http://www.w3.org/2000/svg" viewBox="0 0 40 40"><path fill-rule="evenodd" clip-rule="evenodd" d="M30.77 11.21c-.97-3.04-2.15-5-3.06-5.92C27.09 4.68 26 5.13 26 6v28c0 1.29 2 1.29 2 0v-9h3.5a1 1 0 0 0 1-1c0-5.5-.76-9.72-1.73-12.79ZM30.49 23H28V9.52c1.85 4.2 2.41 8.94 2.5 13.48ZM8.5 6c0-1.29 2-1.29 2 0v5.5a2.98 2.98 0 0 0 2.5 2.91V6c0-1.29 2-1.29 2 0v8.41a2.98 2.98 0 0 0 2.5-2.91V6c0-1.29 2-1.29 2 0v5.5c0 2.6-1.99 4.6-4.5 4.94V34c0 1.29-2 1.29-2 0V16.44a5.03 5.03 0 0 1-4.5-4.94V6Z" fill="#fff"/></svg>
