<svg xmlns="http://www.w3.org/2000/svg" viewBox="0 0 40 40"><path d="M31.93 6c-4.94.03-16.95.92-21.8 8.38-2.7 4.17-2.79 10.66-.57 15.09a25.93 25.93 0 0 0-1.04 3.32c-.26 1.26 1.57 1.7 1.83.42.02-.1 2.4-10.37 10.85-16.38.98-.7 0-2.4-1.04-1.66-4.79 3.4-7.74 8-9.47 11.65-1.24-4.57-.92-8.37.99-11.3 3.74-5.76 12.62-7.15 17.98-7.45-1.16 1.8-2.41 5.1-2.41 10.93 0 3.12-.83 5.52-2.47 7.14-2.62 2.6-6.88 2.83-10 2.58-1.21-.1-1.35 1.9-.14 2 3.48.28 8.3-.03 11.41-3.11 2.04-2.02 3.07-4.91 3.07-8.6 0-9.1 3.22-11.1 3.23-11.11.84-.45.58-1.9-.42-1.9Z" fill="#fff"/></svg>
