<svg fill="none" xmlns="http://www.w3.org/2000/svg" viewBox="0 0 69 53"><circle cx="35.5" cy="25" r="25" fill="#68B738"/><path d="M62.55 14.73a7.86 7.86 0 0 1 2.25-2.43c.5-.38.8-.38 1.1.31.4 1.01.75 2.07.45 3.18a1.28 1.28 0 0 0 .2 1.12c.3.42.55.84.8 1.22a3.43 3.43 0 0 1 .45 3.28c-.18.53-.22 1.1-.1 1.64.1.53.1 1.07 0 1.6-.04.39-.2.76-.43 1.06-.24.3-.56.52-.92.63-.64.13-1.21.5-1.6 1.06a.54.54 0 0 1-.2.2.5.5 0 0 1-.25.07c-.6.1-2.1-1.33-2.1-1.97v-.31c.05-1.91-.05-2.07-1.7-2.87a2.19 2.19 0 0 1-.9-.63c-.3-.43-.7-.37-1.15-.21-.45.16-.7.47-.65 1 .15 1.29.2 2.58.15 3.87 0 .15.04.3.1.43 1.55 2.38 2.15 5.2 2.9 7.9.6 2.06 1.7 3.17 3.7 3.33.32.03.64.08.95.16.41.07.8.27 1.1.57.3.3.5.7.6 1.13.35 1.11.15 1.38-.9 1.38h-3.25c-.42.02-.83-.13-1.15-.43a5.8 5.8 0 0 0-1.7-1.06 3.66 3.66 0 0 1-1.7-1.38 14.92 14.92 0 0 0-2-2.38c-1.4-1.54-2.9-3.02-4.2-4.61a6.22 6.22 0 0 1-1.6-4.03c0-.48-.1-.69-.6-.48a.93.93 0 0 1-.5.16c-1.4 0-2.1.9-2.6 2.23-.45 1.11-1.05 2.17-1.6 3.28a5.9 5.9 0 0 0-.5 2.23c0 1.27.3 1.7 1.4 2.12.7.27 1.35.53 1.7 1.27.4.85.3 1.06-.55 1.12h-3.4a.9.9 0 0 1-.56-.13.98.98 0 0 1-.39-.46l-.9-1.59a3.32 3.32 0 0 1-.35-2.86c.22-.92.23-1.88.05-2.8a4.72 4.72 0 0 1 .85-3.72c.3-.37.3-.53-.2-.63a24.1 24.1 0 0 1-5.95-2.23c-1.6-.64-1.9-.53-2.35 1.22-.4 1.48-.8 2.97-1.1 4.5-.35 1.7.05 3.29.55 4.88.2.63.8.58 1.25.74 1 .32 1.85.74 2.25 1.86.35.84.3.95-.55.95-.85 0-1.7-.05-2.6 0a3.2 3.2 0 0 1-2.1-.74c-2.4-1.7-3.1-4.3-3.3-7.1-.1-1.75-1-3.13-2.05-4.46-.2-.26-.4-.37-.7-.16-1.07.63-2.2 1.16-3.35 1.6-2.41.9-4.53 2.52-6.1 4.66a5.81 5.81 0 0 0-1.1 2.7c-.15.96.1 1.38 1 1.65.9.26 1.35.79 1.45 1.8.05.42-.1.63-.5.63h-4.05a.8.8 0 0 1-.37-.12.85.85 0 0 1-.28-.3 4.71 4.71 0 0 1-.95-2.92c-.03-1.83.12-3.66.45-5.46a3.4 3.4 0 0 1 1.7-2.54c2.95-1.48 4.5-4.3 5.9-7.2.3-.59.05-.7-.45-.64a8 8 0 0 0-3.85 1.7 35.96 35.96 0 0 0-4.15 3.76 8.15 8.15 0 0 1-5.15 2.6C2.55 28.87.85 26.7 1 23.2a5.3 5.3 0 0 1 1.2-3.23c.26-.35.61-.62 1.01-.76s.83-.15 1.24-.03c.75.2.95.63.65 1.43-.15.31-.35.58-.5.9-.22.32-.38.68-.5 1.06-.55 1.59.2 2.7 1.75 2.86 1.65.16 3-.58 4.25-1.64a23.27 23.27 0 0 0 4-4.4 10.6 10.6 0 0 1 3.18-2.94 9.98 9.98 0 0 1 4.02-1.36c1.15-.15 2.15-.68 3.25-1 2.06-.67 4.2-.99 6.35-.96 1 .05 1.99-.15 2.9-.58 2.45-1.06 5-1.06 7.55-.53 2 .43 4 .96 5.95 1.49 1.16.22 2.35.19 3.5-.11 2.2-.6 4.44-.95 6.7-1.06a8.64 8.64 0 0 1 4.3.9c1 .48 1 .48.75 1.48Z" fill="#000"/></svg>